<?xml version="1.0" encoding="UTF-8" standalone="no"?>
<!DOCTYPE svg PUBLIC "-//W3C//DTD SVG 1.1//EN" "http://www.w3.org/Graphics/SVG/1.1/DTD/svg11.dtd">
<svg width="100%" height="100%" viewBox="0 0 512 512" version="1.1" xmlns="http://www.w3.org/2000/svg" xmlns:xlink="http://www.w3.org/1999/xlink" xml:space="preserve" xmlns:serif="http://www.serif.com/" style="fill-rule:evenodd;clip-rule:evenodd;stroke-linejoin:round;stroke-miterlimit:2;">
    <path d="M34.993,163.077C37.662,150.378 40.106,138.074 43.144,125.919C44.013,122.441 46.016,118.828 48.505,116.244C60.488,103.803 72.746,91.622 85.037,79.482C100.285,64.421 115.58,49.405 131.083,34.609C133.109,32.675 136.457,31.271 139.256,31.156C149.404,30.737 159.578,30.906 169.742,30.972C218.403,31.291 267.063,31.761 315.724,31.932C332.16,31.99 348.605,31.495 365.033,30.903C370.868,30.692 374.854,33.049 378.774,37.043C392.521,51.053 406.504,64.834 420.461,78.636C433.568,91.597 447.093,104.159 459.688,117.596C463.16,121.301 464.596,127.354 465.877,132.596C470.341,150.874 474.267,169.263 474.041,188.265C473.884,201.448 474.985,214.717 473.847,227.802C470.756,263.331 462.843,297.876 448.592,330.661C441.404,347.195 433.752,363.672 424.596,379.162C416.93,392.134 407.008,403.82 397.633,415.718C391.942,422.94 385.854,429.982 379.134,436.234C362.315,451.879 344.865,466.859 324.126,477.23C306.394,486.097 287.923,492.619 268.025,495.14C244.406,498.134 222.072,493.842 200.368,485.057C179.007,476.412 159.367,464.86 142.526,448.964C131.366,438.431 119.697,428.304 109.599,416.814C95.494,400.765 83.827,382.876 73.848,363.855C63.768,344.644 55.289,324.82 48.64,304.214C42.825,286.194 37.97,267.887 36.062,248.998C34.377,232.312 32.657,215.574 32.287,198.829C32.027,187.088 34.011,175.297 34.993,163.077M263.5,44.055C224.677,43.714 185.854,43.3 147.03,43.175C144.061,43.165 140.305,44.387 138.231,46.396C111.895,71.898 85.759,97.607 59.722,123.415C57.475,125.642 55.672,128.746 54.714,131.775C48.349,151.914 45.055,172.621 44.462,193.714C42.604,259.8 60.216,320.577 95.36,376.276C118.761,413.365 148.527,444.149 187.674,464.966C206.696,475.081 226.89,481.711 248.464,483.074C266.539,484.217 283.868,479.985 300.599,473.494C338.99,458.6 369.276,432.971 394.313,400.941C433.055,351.378 455.203,295.023 461.506,232.45C464.915,198.603 462.677,165.21 452.677,132.567C451.565,128.938 449.346,125.24 446.654,122.567C421.229,97.325 395.55,72.34 370.071,47.153C367.12,44.237 364.164,42.895 359.975,42.958C328.151,43.436 296.325,43.713 263.5,44.055Z" style="fill:rgb(226,90,83);fill-rule:nonzero;"/>
    <path d="M264,44.054C296.325,43.713 328.151,43.436 359.975,42.958C364.164,42.895 367.12,44.237 370.071,47.153C395.55,72.34 421.229,97.325 446.654,122.567C449.346,125.24 451.565,128.938 452.677,132.567C462.677,165.21 464.915,198.603 461.506,232.45C455.203,295.023 433.055,351.378 394.313,400.941C369.276,432.971 338.99,458.6 300.599,473.494C283.868,479.985 266.539,484.217 248.464,483.074C226.89,481.711 206.696,475.081 187.674,464.966C148.527,444.149 118.761,413.365 95.36,376.276C60.216,320.577 42.604,259.8 44.462,193.714C45.055,172.621 48.349,151.914 54.714,131.775C55.672,128.746 57.475,125.642 59.722,123.415C85.759,97.607 111.895,71.898 138.231,46.396C140.305,44.387 144.061,43.165 147.03,43.175C185.854,43.3 224.677,43.714 264,44.054M90.484,326.64C98.455,342.389 142.751,404.047 150.556,412.694C162.04,424.138 174.746,434.058 188.844,442.013C213.127,455.716 238.594,465.099 267.207,460.833C282.42,458.565 296.918,453.99 311.035,446.191C315.275,443.677 319.516,441.163 324.409,438.469C325.817,437.604 327.246,436.771 328.631,435.87C344.412,425.592 357.809,412.59 371.17,398.821C371.792,398.034 383.369,383.377 387.939,376.839C417.377,334.722 435.268,288.19 441.227,237.076C441.772,232.402 441.051,226.885 446.44,223.826C455.546,218.659 455.952,210.135 454.759,201.156C454.015,195.558 453.049,189.99 452.178,184.409C449.717,168.658 447.376,152.887 444.744,137.164C443.328,128.711 435.835,124.277 428.06,127.382C424.486,128.809 422.404,128.066 419.827,125.508C399.838,105.676 379.748,85.946 359.553,66.323C357.953,64.768 355.348,63.431 353.189,63.398C339.364,63.189 325.534,63.374 310.886,63.198C308.997,63.267 307.108,63.337 305.191,63.404C300.998,63.549 296.671,63.677 291.916,63.752C288.45,63.834 277.325,63.967 274.491,64.05C262.823,64.156 251.998,66.289 239.478,66.211C234.549,66.18 229.618,66.193 223.978,65.862C220.598,65.867 215.721,65.856 211.424,65.667C192.615,65.557 174.395,65.255 155.589,64.987C152.117,64.938 150.741,65.725 148.321,68.126C129.295,87.002 111.852,104.005 96.006,125.616C91.761,131.405 82.784,130.027 75.675,126.64C67.164,122.585 66.009,124.926 62.752,133.849C62.238,135.255 62.04,137.924 61.908,139.413C59.691,164.348 55.459,189.324 52.153,214.689C50.165,229.936 50.136,231.283 63.481,237.967C65.162,238.809 66.913,240.66 67.212,242.525C71.783,271.06 78.777,299.58 90.484,326.64Z" style="fill:rgb(21,57,95);fill-rule:nonzero;"/>
    <g transform="matrix(1,0,0,1,0.403812,0.129649)">
        <path d="M223.848,64.091C228.778,64.123 233.725,64.328 239.228,64.542C240.644,66.582 241.371,68.323 242.325,69.872C252.519,86.433 262.781,102.953 272.953,119.528C279.57,130.309 286.27,141.049 292.5,152.053C294.376,155.367 295.601,159.472 295.742,163.266C296.2,175.571 295.62,187.92 296.25,200.21C296.561,206.266 294.581,209.085 289.01,211.09C280.576,214.124 272.222,217.594 264.286,221.744C255.212,226.488 252.683,233.472 256.05,243.068C258.079,248.849 260.771,254.444 263.657,259.859C265.716,263.724 264.965,265.803 261.178,267.729C255.991,270.367 251.091,273.562 245.946,276.287C243.105,277.793 241.768,279.678 242.098,283.008C242.638,288.458 243.034,293.937 243.153,299.41C243.317,306.989 239.029,311.394 231.364,311.808C228.787,311.948 226.196,311.83 222.824,311.83C223.13,317.699 223.729,323.469 223.651,329.229C223.564,335.583 224.984,341.037 230.063,345.231C228.236,348.191 226.842,352.319 224.938,354.842C218.584,350.399 212.911,343.605 212.721,335.614C212.623,331.481 209.916,326.593 209.819,322.46C209.731,318.744 211.734,317.109 211.734,312.418C208.479,313.595 207.674,313.166 205.785,314.018C196.267,318.308 186.803,322.717 177.27,326.974C174.588,328.172 170.981,328.76 168.248,329.414C173.133,321.779 177.009,315.011 181.44,307.473C183.719,303.596 184.535,301.918 180.153,302.735C173.825,303.915 167.544,305.558 161.415,307.536C156.77,309.034 152.149,313.006 147.48,315.041C143.673,303.798 137.171,294.437 128.159,287.426C124.655,284.7 123.463,283.924 122.762,288.205C121.963,293.087 121.145,298.12 121.507,303C122.042,310.195 123.614,317.312 124.631,323.75C138.609,327.039 162.533,384.349 153.988,415.101C153.483,416.92 136.376,400.314 122.353,380.83C109.681,363.224 97.728,342.279 94.892,337.093C86.308,321.393 67.233,274.251 66.895,243.326C66.874,241.437 64.907,239.126 63.227,238.284C49.881,231.601 49.498,230.638 51.486,215.391C54.791,190.026 57.771,164.619 60.907,139.232C61.09,137.749 61.425,136.284 61.71,134.815C63.684,124.607 67.109,122.319 75.675,126.64C81.539,129.598 85.682,127.62 90.203,123.209C109.384,104.495 128.337,85.544 147.362,66.668C149.783,64.267 152.185,63.157 155.657,63.206C174.463,63.475 193.273,63.503 212.797,63.931C216.958,64.196 220.403,64.144 223.848,64.091M76.324,137.768C72.304,135.54 70.162,136.476 69.741,141.297C69.336,145.928 68.438,150.514 67.896,155.136C65.824,172.79 63.814,190.452 61.766,208.109C61.499,210.413 60.885,212.709 60.893,215.007C60.908,219.562 66.54,223.782 71.288,223.513C75.968,223.247 73.069,219.947 73.701,217.028C74.929,211.352 75.919,205.062 77.218,199.406C77.557,197.928 80.443,195.846 81.754,195.82C87.477,195.708 93.58,202.381 93.027,208.221C92.387,214.987 90.857,221.664 89.986,228.416C89.233,234.246 92.082,236.63 97.383,236.975C103.23,237.356 100.868,232.974 101.5,229.442C105.099,209.315 108.794,189.274 112.438,169.156C113.685,162.274 114.395,162.158 108.548,158.476C104.667,156.032 102.93,154.413 101.554,158.946C100.835,161.316 100.505,163.815 100.13,166.276C99.38,171.204 98.963,176.2 97.877,181.049C97.534,182.581 95.57,184.793 94.227,184.882C87.443,185.333 78.255,177.71 79.295,170.918C80.125,165.493 81.595,159.301 82.934,153.999C84.858,146.384 84.466,141.256 76.324,137.768M204.387,222.813C203.723,241.542 200.172,259.8 195.418,277.865C193.558,284.935 194.95,287.879 201.187,291.424C204.706,293.425 206.827,291.977 206.441,288.155C205.979,283.586 212.637,273.001 216.053,273.961C217.084,275.503 217.789,278.137 218.473,279.82C219.01,281.14 218.726,282.776 218.925,284.256C219.566,289.026 219.906,293.875 221.045,298.527C222.022,302.521 226.864,303.948 230.529,303.019C234.883,301.915 233.164,299.806 233.11,296.798C233.035,292.649 232.617,288.163 232.314,284.018C231.864,277.883 231.481,272.115 231.182,265.973C230.883,259.828 233.704,253.427 238.148,249.059C242.059,245.216 245.401,241.179 248.919,236.971C252.916,232.191 252.392,229.882 248.375,226.872C241.237,221.524 237.924,220.879 234.114,226.319C229.438,232.995 225.039,239.865 220.425,246.586C219.512,247.915 217.894,249.578 216.748,250.748C216.345,250.501 215.424,250.293 215.153,249.823C215.966,246.481 216.305,242.601 217.117,239.258C218.41,233.936 220.458,227.912 221.173,222.513C221.98,216.416 216.205,211.945 209.931,211.729C206.254,211.602 204.868,214.128 204.444,221.403C204.435,221.569 204.431,221.736 204.387,222.813M121.578,179.312C118.656,198.543 115.678,217.765 112.886,237.015C112.564,239.231 112.506,242.158 113.682,243.758C115.379,246.067 117.703,243.418 120.112,245.203C121.492,243.121 122.975,244.909 123.59,242.622C124.527,239.133 124.208,234.486 124.827,230.889C125.554,226.661 128.892,226.877 132.883,228.472C138.333,230.649 139.78,233.343 138.896,239.971C138.259,244.744 137.211,249.481 136.894,254.271C136.641,258.087 140.404,260.513 144.452,260.786C149.052,261.097 147.558,257.218 147.93,254.49C149.32,244.285 149.985,235.123 151.323,224.91C152.594,215.203 154.463,206.127 154.948,196.391C155.352,188.26 153.274,181.313 145.625,177.543C142.043,175.779 138.432,174.07 134.787,172.443C127.622,169.246 124.132,170.894 121.578,179.312M169.205,232.113C169.919,229.553 170.711,228.203 171.441,225.648C172.522,221.867 175.939,221.925 179.375,224.026C182.922,226.194 186.469,228.368 190.088,230.414C192.566,231.815 193.914,229.867 195.555,226.957C200.464,218.253 197.221,209.082 189.009,203.841C175.685,195.339 170.139,195.538 163.405,209.909C157.642,222.206 155.518,235.414 156.437,248.827C157.448,263.568 165.021,274.508 178.551,280.827C180.281,281.635 182.664,280.687 183.878,279.595C191.395,272.837 189.064,262.296 179.681,258.687C170.124,255.012 167.44,251.835 167.867,241.608C167.956,239.457 168.086,237.16 168.534,234.152M229.189,89.485C228.071,84.69 228.034,79.238 225.602,75.243C220.997,67.677 212.871,67.404 205.042,68.726C188.961,71.441 177.161,83.73 174.34,101.403C171.224,120.932 168.689,140.559 166.237,160.186C165.527,165.869 164.434,172.437 170.035,176.409C182.744,185.421 194.199,185.63 200.302,169.591C202.174,164.673 202.978,159.301 203.865,154.068C204.93,147.785 206.792,142.333 211.021,137.042C214.98,132.09 216.569,125.214 219.053,119.124C220.217,116.273 220.986,113.265 222.018,110.357C224.38,103.699 226.794,97.058 229.189,89.485Z" style="fill:rgb(211,181,131);fill-rule:nonzero;"/>
    </g>
    <path d="M230.319,344.969C224.984,341.037 223.564,335.583 223.651,329.229C223.729,323.469 223.13,317.699 222.824,311.83C226.196,311.83 228.787,311.948 231.364,311.808C239.029,311.394 243.317,306.989 243.153,299.41C243.034,293.937 242.638,288.458 242.098,283.008C241.768,279.678 243.105,277.793 245.946,276.287C251.091,273.562 255.991,270.367 261.178,267.729C264.965,265.803 265.716,263.724 263.657,259.859C260.771,254.444 258.079,248.849 256.05,243.068C252.683,233.472 255.212,226.488 264.286,221.744C272.222,217.594 280.576,214.124 289.01,211.09C294.581,209.085 296.561,206.266 296.25,200.21C295.62,187.92 296.2,175.571 295.742,163.266C295.601,159.472 294.376,155.367 292.5,152.053C286.27,141.049 279.57,130.309 272.953,119.528C262.781,102.953 252.519,86.433 242.325,69.872C241.371,68.323 240.627,66.646 239.637,64.699C251.156,64.263 280.787,64.055 281.52,63.999C284.985,63.917 288.58,63.612 292.735,63.855C294.842,65.713 296.129,67.467 297.306,69.282C293.081,75.457 287.954,79.437 280.673,80.735C271.257,82.414 269.595,85.781 273.076,94.664C273.562,95.902 274.08,97.14 274.716,98.305C287.553,121.844 300.259,145.456 313.4,168.824C315.756,173.014 319.377,177.008 323.368,179.654C331.01,184.722 340.104,180.837 342.747,172.044C343.408,169.847 343.851,167.46 343.764,165.184C343.422,156.211 342.852,147.246 342.323,138.28C341.568,125.5 340.417,112.347 339.915,99.763C345.215,103.794 350.352,108.392 355.674,111.758C366.909,118.863 375.146,127.926 378.288,141.258C379.367,145.835 381.72,150.112 383.653,154.93C387.056,153.223 389.823,151.835 393.227,150.127C388.909,139.359 384.775,128.868 380.443,118.459C379.845,117.022 378.423,115.793 377.126,114.802C364.446,105.111 351.584,95.588 338.758,85.551C338.321,81.841 337.966,78.438 337.818,75.117C337.449,66.821 332.054,63.334 324.306,66.514C322.014,67.454 319.61,68.908 317.1,69.579C315.111,67.504 313.056,64.995 311.291,63.202C325.12,63.147 339.364,63.189 353.189,63.398C355.348,63.431 357.953,64.768 359.553,66.323C379.748,85.946 399.838,105.676 419.827,125.508C422.404,128.066 424.486,128.809 428.06,127.382C435.835,124.277 443.328,128.711 444.744,137.164C447.376,152.887 449.717,168.658 452.178,184.409C453.049,189.99 454.015,195.558 454.759,201.156C455.952,210.135 455.546,218.659 446.44,223.826C441.051,226.885 441.772,232.402 441.227,237.076C435.268,288.19 417.377,334.722 387.939,376.839C383.369,383.377 377.054,391.875 371.625,398.319C370.2,393.431 371.066,385.784 369.358,381.051C367.531,375.993 368.07,372.074 371.61,368.26C373.418,366.312 375.056,364.205 376.752,362.155C384.221,353.131 389.49,343.049 390.763,331.274C391.236,326.902 390.84,322.436 390.84,318.235C394.756,316.819 398.718,315.617 402.482,313.965C406.934,312.011 407.253,309.58 403.084,306.887C399.09,304.308 394.73,301.313 390.24,300.725C384.055,299.914 380.301,297.253 377.572,292.263C378.535,291.086 379.524,289.818 379.979,288.783C385.521,276.182 391.014,263.559 396.469,250.92C396.757,250.252 396.599,249.393 396.648,248.637C394.329,247.965 392.303,247.02 390.229,246.903C388.832,246.824 386.512,247.533 386.064,248.54C380.473,261.107 374.971,274.17 369.213,286.76C363.669,285.022 358.775,282.329 353.465,281.442C344.343,279.918 340.95,283.691 343.229,292.783C344.456,297.675 347.355,302.01 349.09,306.926C339.113,316.657 329.19,326.448 319.35,335.833C317.52,337.578 315.079,339.119 312.66,339.737C301.916,342.481 291.077,344.855 279.979,347.202C276.462,346.239 273.205,345.551 270.032,344.585C268.448,344.103 266.268,343.494 265.65,342.284C262.864,336.82 258.349,335.799 252.8,335.889C247.544,335.974 243.939,337.978 241.85,342.793C241.48,343.644 240.839,344.376 240.782,344.464C236.808,344.656 233.563,344.813 230.319,344.969M415.227,148.14C416.224,154.687 416.911,161.301 418.292,167.766C420.412,177.691 423.175,187.479 425.357,197.393C427.531,207.269 425.63,210.779 416.663,214.767C415.144,215.442 413.558,215.965 412.008,216.572C408.481,217.954 405.978,216.72 405.018,213.232C403.607,208.113 402.43,202.915 401.446,197.695C399.443,187.072 397.646,176.411 395.743,165.769C394.958,161.382 392.603,160.447 388.549,162.181C377.096,167.079 375.231,171.5 379.129,183.242C382.054,192.053 384.577,201.012 386.919,209.998C388.929,217.715 390.444,225.562 392.15,233.357C393.072,237.572 395.823,238.658 399.62,237.605C402.015,236.941 426.55,223.591 436.425,217.733C442.847,213.923 445.481,208.051 444.365,200.765C441.297,180.716 438.123,160.681 434.72,140.687C434.453,139.122 430.773,137.115 429.892,137.389C423.765,139.293 418.399,140.78 415.227,148.14M317.591,215.45C319.772,223.132 321.439,231.01 324.27,238.445C327.557,247.078 332.312,248.333 340.352,243.896C345.889,240.84 351.392,237.712 357.039,234.871C358.719,234.026 359.891,232.78 361.807,232.405C362.084,232.918 364.624,236.098 364.902,236.612C363.005,238.776 360.14,240.071 357.826,241.605C351.471,245.817 344.681,249.37 338.304,253.552C336.024,255.047 332.819,257.678 332.918,259.646C333.057,262.415 335.291,266.094 337.714,267.46C340.385,268.966 344.751,269.464 347.555,268.343C354.765,265.459 361.831,261.924 368.368,257.734C375.225,253.338 381.49,247.197 380.829,238.498C380.254,230.929 377.675,223.305 374.795,216.185C372.638,210.852 368.463,210.362 363.178,213.284C357.213,216.582 351.388,220.154 345.296,223.194C343.009,224.336 340.76,226.219 338.159,226.731C338.306,227.504 337.55,226.229 336.799,224.87C336.204,223.791 335.611,222.66 335.476,222.456C336.494,220.498 338.266,219.123 339.77,217.667C342.366,215.154 345.411,213.055 348.448,211.058C354.137,207.316 360.097,203.973 365.665,200.066C368.72,197.922 370.098,194.355 368.665,190.743C367.115,186.833 364.027,184.139 359.557,184.032C357.459,183.982 355.037,184.167 353.285,185.165C344.2,190.34 334.837,195.214 326.5,201.437C322.462,204.45 320.459,210.188 317.591,215.45M263.91,240.351C273.115,258.316 280.28,277.043 285.321,296.608C286.163,299.875 287.612,303.597 292.474,302.432C298.767,300.925 303.523,295.434 302.682,290.721C300.731,279.787 300.879,278.73 310.158,273.569C318.044,269.183 320.965,262.545 319.198,254.388C316.994,244.214 314.179,234.081 310.538,224.337C307.115,215.174 302.433,213.415 293.149,216.921C285.085,219.967 277.298,223.769 269.467,227.407C262.693,230.553 262.096,232.024 263.91,240.351M292.941,327.502C294.275,323.895 296.456,320.351 296.732,316.664C297.087,311.944 292.115,314.523 289.783,313.239C289.167,312.9 286.336,314.676 286.235,315.657C285.909,318.825 284.112,319.833 281.472,320.478C278.894,321.108 276.387,322.021 273.827,322.729C268.841,324.108 257.189,319.409 254.749,314.981C254.4,314.35 254.335,313.316 254.591,312.639C255.79,309.463 257.148,306.347 258.675,302.664C262.119,305.147 264.56,307.644 267.523,308.788C269.537,309.565 272.996,309.289 274.538,307.983C277.038,305.865 276.098,302.721 273.656,300.616C270.513,297.907 267.063,295.553 263.931,292.832C257.966,287.649 253.446,290.176 249.926,296.389C247.077,301.418 245.239,307.02 242.954,312.369C241.449,315.889 242.117,319.186 245.106,321.319C251.451,325.848 258.016,330.084 264.637,334.204C265.894,334.987 267.971,335.2 269.424,334.795C277.092,332.657 284.681,330.238 292.941,327.502Z" style="fill:rgb(189,226,251);fill-rule:nonzero;"/>
    <path d="M310.332,446.294C296.918,453.99 282.42,458.565 267.207,460.833C238.594,465.099 213.127,455.716 188.844,442.013C174.746,434.058 162.137,424.926 150.487,412.732C149.941,394.775 147.457,374.84 147.413,357.756C154.693,361.971 164.558,368.229 171.178,372.527C166.577,375.159 165.237,378.719 166.586,382.862C169.777,392.663 173.021,402.45 176.509,412.147C177.183,414.021 178.723,416.103 180.434,417.003C194.417,424.352 208.468,431.582 222.695,438.44C224.476,439.298 228.46,438.643 229.625,437.219C236.552,428.752 242.101,419.717 249.008,410.81C252.811,410.843 257.344,410.551 260.97,411.039C267.382,419.336 273.299,428.049 279.775,435.863C281.471,437.911 284.039,439.778 286.559,440.501C294.392,442.748 302.395,444.407 310.332,446.294Z" style="fill:rgb(190,227,252);fill-rule:nonzero;"/>
    <path d="M373.397,395.954C371.355,398.844 370.73,399.475 368.592,401.779C357.009,414.258 342.414,426.893 328.631,435.87C327.246,436.771 325.598,438.094 323.445,438.879C313.052,436.416 303.58,433.699 294.003,431.057C291.287,430.307 288.322,428.87 286.486,426.834C281.951,421.803 278.005,416.243 274.133,410.694C277.88,409.558 282.538,409.219 282.599,404.841C282.657,400.735 284.445,399.37 287.783,398.744C296.709,405.266 305.478,411.429 314.235,417.608C318.551,420.654 322.457,420.066 326.367,416.67C334.365,409.725 342.665,403.115 350.437,395.931C352.283,394.224 352.539,390.797 353.834,387.928C355.206,387.851 356.99,387.688 357.223,388.213C359.874,394.194 367.138,394.555 373.397,395.954Z" style="fill:rgb(190,227,251);fill-rule:nonzero;"/>
    <path d="M370.923,398.592C364.433,397.291 359.874,394.194 357.223,388.213C356.99,387.688 355.206,387.851 353.489,387.914C349.31,387.84 345.785,387.547 341.942,387.04C336.529,383.756 335.942,383.091 340.735,379.064C344.289,377.862 348.011,377.014 351.514,375.835C359.439,365.983 362.42,354.711 363.032,342.181C359.677,343.257 356.913,344.377 354.041,345.012C349.369,346.045 347.958,344.649 349.477,340.133C351.988,332.671 354.913,325.347 357.984,317.105C357.969,317.091 356.895,316.116 355.685,314.841C353.392,311.999 351.236,309.458 349.079,306.916C347.083,302.217 344.456,297.675 343.229,292.783C340.95,283.691 344.343,279.918 353.465,281.442C358.775,282.329 363.846,284.646 369.595,286.641C372.885,287.339 375.17,289.6 377.404,292.087C380.419,296.837 384.055,299.914 390.24,300.725C394.73,301.313 399.09,304.308 403.084,306.887C407.253,309.58 406.934,312.011 402.482,313.965C398.718,315.617 394.756,316.819 390.84,318.235C390.84,322.436 391.236,326.902 390.763,331.274C389.49,343.049 384.221,353.131 376.752,362.155C375.056,364.205 373.418,366.312 371.61,368.26C368.07,372.074 367.531,375.993 369.358,381.051C371.066,385.784 371.682,392.289 371.946,395.267C372.038,396.314 371.778,397.706 370.923,398.592ZM353.361,383.093C354.95,381.999 356.538,380.906 358.486,379.565C361.192,384.644 360.88,391.248 368.643,393.872C367.418,388.902 366.904,384.771 365.365,381.065C363.246,375.962 364.103,371.681 367.341,367.586C369.921,364.324 372.664,361.187 375.183,357.88C384.311,345.899 389.683,332.883 386.06,317.45C385.291,314.171 386.203,313.232 389.925,313.427C393.399,313.61 396.968,311.999 401.652,310.908C396.051,306.136 391.173,304.231 385.53,303.559C383.226,303.284 380.398,301.934 379.04,300.14C372.857,291.971 364.609,287.5 354.841,285.483C347.128,283.89 345.205,285.89 347.29,293.579C349.489,301.688 354.551,308.036 360.411,313.879C362.083,315.546 363.879,317.706 364.314,319.899C367.638,336.628 368.146,353.099 360.588,369.184C357.727,375.272 354.501,380.082 347.825,381.951C347.163,382.137 346.596,382.667 345.985,383.037C346.117,383.58 346.25,384.123 346.383,384.667C348.525,384.315 350.667,383.963 353.361,383.093M362.206,329.224C361.956,327.256 361.705,325.289 361.455,323.321C360.822,323.241 360.189,323.161 359.557,323.081C357.373,328.786 355.189,334.492 352.849,340.603C361.234,340.023 363.271,337.495 362.206,329.224Z" style="fill:rgb(21,57,95);fill-rule:nonzero;"/>
    <path d="M144.037,355.458C143.563,357.47 143.442,358.793 142.945,359.955C139.707,367.532 136.555,375.156 132.961,382.564C132.178,384.178 129.424,387.17 127.884,385.864C125.661,383.979 115.82,376.585 120.022,346.544C120.146,345.657 107.961,342.28 100.653,337.817C96.362,335.196 94.965,330.525 95.588,330.257C97.096,329.608 100.77,328.939 105.019,328.241C113.335,326.874 123.852,325.398 124.631,323.75C125.755,321.372 118.991,306.999 122.762,288.205C123.615,283.952 124.915,283.555 128.419,286.281C137.431,293.292 143.916,302.156 147.723,313.398C152.392,311.364 156.77,309.034 161.415,307.536C167.544,305.558 173.825,303.915 180.153,302.735C184.535,301.918 186.089,303.164 184.735,307.453C182.528,314.446 163.382,336.077 163.039,336.38C168.173,344.495 173.002,350.456 177.534,360.423C178.819,363.248 178.883,366.053 178.655,368.135C178.379,370.663 181.507,377.664 174.007,374.353M103.828,335.793C107.436,337.58 115.664,341.084 121.836,342.826C125.745,343.93 125.965,345.266 125.089,348.757C124.291,351.936 123.644,355.601 122.948,357.981C122.718,358.768 123.979,358.961 123.731,359.403C119.789,366.426 128.933,381.781 128.933,381.781C128.933,381.781 132.32,377.917 132.995,376.006C135.527,368.843 137.695,361.552 140.06,354.329C140.604,352.67 141.389,351.091 142.063,349.475C143.537,350.332 145.215,350.963 146.451,352.082C154.54,359.408 163.697,364.884 175.206,369.563C174.187,365.294 174.185,361.877 172.635,359.447C168.286,352.629 163.554,346.011 158.443,339.746C156.279,337.094 155.642,335.904 158.574,333.49C162.671,330.115 166.676,326.471 170.006,322.364C173.637,317.887 176.453,312.748 179.624,307.898C179.169,307.498 178.714,307.097 178.26,306.697C166.536,308.366 155.918,313.099 145.433,319.934C142.44,307.382 136.859,297.314 126.459,289.993C123.828,298.6 124.538,308.329 128.456,321.097C130.427,327.519 130.42,327.472 123.547,328.486C116.113,329.582 100.189,332.1 100.189,332.1C100.189,332.1 102.279,335.025 103.828,335.793Z" style="fill:rgb(21,57,95);fill-rule:nonzero;"/>
    <path d="M273.841,410.406C278.024,415.754 281.951,421.803 286.486,426.834C288.322,428.87 291.287,430.307 294.003,431.057C303.58,433.699 313.851,436.189 323.918,438.743C320.097,441.427 315.513,443.922 310.921,446.487C302.633,444.651 294.392,442.748 286.559,440.501C284.039,439.778 281.471,437.911 279.775,435.863C273.299,428.049 266.897,419.482 260.979,411.101C265.396,410.619 269.764,410.501 273.841,410.406Z" style="fill:rgb(211,181,131);fill-rule:nonzero;"/>
    <path d="M297.367,69.244C295.95,67.713 294.09,65.444 292.438,63.643C298.463,63.433 304.897,63.386 311.22,63.153C313.394,65.062 315.511,67.309 317.141,69.577C310.618,69.632 303.892,66.188 297.367,69.244Z" style="fill:rgb(211,181,131);fill-rule:nonzero;"/>
    <path d="M76.653,137.98C84.466,141.256 86.359,146.694 84.436,154.309C83.096,159.611 82.548,165.116 81.718,170.541C80.678,177.333 87.443,185.333 94.227,184.882C95.57,184.793 97.534,182.581 97.877,181.049C98.963,176.2 99.38,171.204 100.13,166.276C100.505,163.815 100.835,161.316 101.554,158.946C102.93,154.413 104.517,153.888 108.398,156.332C114.245,160.014 115.384,163.341 114.137,170.222C110.493,190.341 107.105,210.505 103.506,230.632C102.874,234.164 103.407,239.015 97.561,238.633C92.26,238.288 89.233,234.246 89.986,228.416C90.857,221.664 92.387,214.987 93.027,208.221C93.58,202.381 87.831,196.217 82.108,196.329C80.797,196.355 78.726,198.483 78.387,199.961C77.088,205.617 76.554,211.445 75.325,217.121C74.693,220.041 75.742,224.63 71.062,224.896C66.314,225.165 60.908,219.562 60.893,215.007C60.885,212.709 61.499,210.413 61.766,208.109C63.814,190.452 65.824,172.79 67.896,155.136C68.438,150.514 69.336,145.928 69.741,141.297C70.162,136.476 72.304,135.54 76.653,137.98Z" style="fill:rgb(21,57,95);fill-rule:nonzero;"/>
    <path d="M204.406,222.357C204.431,221.736 204.435,221.569 204.444,221.403C204.868,214.128 206.77,210.813 210.447,210.94C216.721,211.156 222.814,217.269 222.006,223.366C221.292,228.765 219.545,234.028 218.252,239.351C217.44,242.693 216.625,246.034 215.811,249.376C215.557,250.42 217.393,250.505 217.828,250.061C218.974,248.892 219.512,247.915 220.425,246.586C225.039,239.865 229.438,232.995 234.114,226.319C237.924,220.879 242.252,220.975 249.39,226.323C253.407,229.333 253.632,233.18 249.636,237.96C246.117,242.168 242.412,246.248 238.501,250.091C234.057,254.459 231.829,259.606 232.128,265.75C232.427,271.892 233.013,278.02 233.463,284.155C233.767,288.3 234.216,292.443 234.291,296.593C234.345,299.6 235.248,303.284 230.894,304.388C227.229,305.317 222.022,302.521 221.045,298.527C219.906,293.875 219.566,289.026 218.925,284.256C218.726,282.776 217.325,274.961 215.464,275.161C213.228,275.402 212.151,277.391 211.427,278.941C209.961,282.083 209.174,285.538 208.059,288.848C206.833,292.489 204.706,293.425 201.187,291.424C194.95,287.879 193.558,284.935 195.418,277.865C200.172,259.8 203.723,241.542 204.406,222.357Z" style="fill:rgb(27,61,96);fill-rule:nonzero;"/>
    <path d="M121.647,178.913C124.132,170.894 127.622,169.246 134.787,172.443C138.432,174.07 142.043,175.779 145.625,177.543C153.274,181.313 157.396,187.89 156.992,196.021C156.507,205.757 154.336,215.402 153.064,225.108C151.726,235.322 150.687,245.574 149.296,255.78C148.924,258.508 149.217,262.32 144.618,262.01C140.569,261.736 136.641,258.087 136.894,254.271C137.211,249.481 138.259,244.744 138.896,239.971C139.78,233.343 138.333,230.649 132.883,228.472C128.892,226.877 126.799,227.872 126.071,232.1C125.453,235.697 125.658,239.475 124.721,242.964C124.428,244.053 123.872,249.371 120.588,248.689C118.058,248.163 114.57,244.967 113.682,243.758C112.506,242.158 112.564,239.231 112.886,237.015C115.678,217.765 118.656,198.543 121.647,178.913M134.797,199.431C133.317,199.647 130.645,199.628 130.549,200.118C129.889,203.453 128.331,207.895 129.833,210.057C131.857,212.972 141.568,214.625 141.881,213.703C144.494,206.01 143.153,203.16 134.797,199.431Z" style="fill:rgb(21,57,95);fill-rule:nonzero;"/>
    <path d="M274.133,410.694C269.745,410.99 265.669,411.085 261.098,411.264C257.132,411.163 253.66,410.978 249.351,410.893C244.194,411.024 239.874,411.055 235.166,410.928C230.026,409.467 223.914,409.744 224.89,401.899C224.975,401.221 223.527,400.211 222.631,399.582C221.026,398.455 219.299,397.5 217.493,396.234C213.521,393.447 210.493,385.831 210.493,385.831C210.493,385.831 211.027,382.278 211.542,380.63C214.647,378.167 214.725,375.581 213.703,372.004C212.772,368.746 213.897,365.117 214.328,361.325C217.156,360.053 219.611,358.7 222.239,358.055C224.921,357.397 226.004,356.273 225.093,353.585C226.665,350.888 228.236,348.191 230.063,345.231C233.563,344.813 236.808,344.656 240.782,344.464C240.839,344.376 241.48,343.644 241.85,342.793C243.939,337.978 247.544,335.974 252.8,335.889C258.349,335.799 262.864,336.82 265.65,342.284C266.268,343.494 268.448,344.103 270.032,344.585C273.205,345.551 276.449,345.805 280.098,347.149C281.039,349.93 281.268,352.738 282.194,354.792C282.76,356.048 284.416,356.812 285.979,357.91C291.366,358.824 294.598,361.516 294.892,366.728C295.018,368.973 294.293,371.267 293.703,373.701C293.749,375.536 293.526,377.603 294.439,378.81C297.7,383.121 298.232,386.69 294.931,391.025C292.853,393.754 290.384,396.325 287.923,398.763C284.747,399.741 282.657,400.735 282.599,404.841C282.538,409.219 277.88,409.558 274.133,410.694M262.98,373.353C263.127,364.778 263.882,356.155 263.218,347.643C262.738,341.485 259.517,339.474 253.935,339.354C248.323,339.233 245.188,341.12 244.447,347.332C243.573,354.655 243.478,362.216 244.224,369.554C245.349,380.625 245.782,380.186 256.44,380.143C261.232,380.124 262.607,378.256 262.98,373.353M241.274,394.983C236.469,384.604 231.735,374.191 226.761,363.893C226.209,362.751 224.315,361.654 222.995,361.593C218.027,361.364 215.244,364.925 216.92,369.879C221.33,382.915 231.388,391.07 242.742,398.129C242.372,397.281 242.002,396.432 241.274,394.983M272.666,383.149C270.462,387.752 268.258,392.355 266.055,396.958C266.496,397.211 266.937,397.465 267.378,397.719C276.344,390.873 284.708,383.423 289.674,372.933C290.618,370.939 291.415,368.07 290.66,366.293C289.81,364.293 287.347,362.536 285.185,361.646C282.521,360.548 281.292,362.536 280.337,365.082C278.129,370.973 275.486,376.703 272.666,383.149M266.857,372.371C266.102,376.926 265.346,381.482 264.591,386.038C266.327,386.016 267.013,385.729 267.224,385.239C270.809,376.887 274.587,368.603 277.723,360.084C278.671,357.508 278.302,354.148 277.645,351.357C276.822,347.862 273.448,347.508 270.76,348.469C269.441,348.941 268.256,351.463 268.085,353.166C267.471,359.252 267.318,365.384 266.857,372.371M243.121,384.321C241.895,373.992 240.719,363.658 239.395,353.342C239.179,351.662 238.172,348.627 237.769,348.666C235.211,348.915 232.502,349.473 230.308,350.738C229.356,351.287 229.123,353.781 229.223,355.349C229.944,366.642 235.325,376.224 240.793,385.734C240.898,385.917 242.327,385.339 243.121,384.321M255.399,384.634C258.549,384.419 251.219,383.435 249.099,385.064C246.827,386.81 244.927,391.34 245.558,394.02C246.479,397.934 248.48,402.465 254.722,401.728C258.39,401.296 260.361,400.426 262.278,396.94C265.344,391.362 259.655,388.861 258.565,384.716M224.943,396.612C229.015,398.508 233.087,400.404 237.159,402.3C231.268,394.907 225.092,388.357 218.722,382C218.202,381.481 215.315,382.227 215.301,382.481C215.186,384.611 214.702,387.402 215.823,388.778C218.169,391.66 221.427,393.8 224.943,396.612M285.97,385.401C281.427,391.024 276.885,396.647 273.68,400.615C279.148,399.497 286.317,395.715 291.556,389.094C292.78,387.547 291.652,384.139 291.606,381.588C289.88,382.673 288.154,383.759 285.97,385.401M239.454,402.54C239.454,402.54 239.399,402.451 239.454,402.54Z" style="fill:rgb(21,57,95);fill-rule:nonzero;"/>
    <path d="M170.447,234.774C170.084,237.35 169.648,239.487 169.558,241.638C169.131,251.864 170.824,254.376 180.381,258.051C189.764,261.66 192.295,273.851 184.778,280.609C183.564,281.701 180.281,281.635 178.551,280.827C165.021,274.508 157.448,263.568 156.437,248.827C155.518,235.414 157.642,222.206 163.405,209.909C170.139,195.538 176.846,193.751 190.169,202.253C198.382,207.493 201.276,220.163 196.367,228.867C194.726,231.777 192.566,231.815 190.088,230.414C186.469,228.368 182.922,226.194 179.375,224.026C175.939,221.925 173.757,222.882 172.676,226.663C171.946,229.218 171.246,231.782 170.447,234.774Z" style="fill:rgb(21,57,95);fill-rule:nonzero;"/>
    <path d="M225.004,353.465C226.246,356.326 224.921,357.397 222.239,358.055C219.611,358.7 216.27,361.135 214.376,361.591C209.388,353.903 207.249,352.597 199.383,356.97C192.385,360.861 182.534,372.243 178.768,367.826C176.266,355.863 169.971,346.777 162.826,336.38C164.839,334.605 169.065,329.53 169.039,329.523C171.786,328.521 174.588,328.172 177.27,326.974C186.803,322.717 196.267,318.308 205.785,314.018C207.674,313.166 209.685,312.584 212.939,311.407C212.939,316.098 212.87,319.817 212.958,323.532C213.055,327.666 213.362,331.794 213.46,335.928C213.649,343.918 218.649,349.022 225.004,353.465Z" style="fill:rgb(191,228,252);fill-rule:nonzero;"/>
    <path d="M229.594,89.66C228.99,95.721 224.63,104.632 222.268,111.29C221.236,114.198 220.191,117.329 219.028,120.18C216.543,126.269 215.128,132.697 211.169,137.649C206.939,142.94 205.278,148.341 204.214,154.624C203.327,159.857 202.582,165.189 200.71,170.107C194.607,186.145 182.744,185.421 170.035,176.409C164.434,172.437 165.527,165.869 166.237,160.186C168.689,140.559 171.224,120.932 174.34,101.403C177.161,83.73 188.961,71.441 205.042,68.726C212.871,67.404 221.29,67.358 225.895,74.924C228.327,78.919 230.097,84.62 229.594,89.66ZM195.947,104.331C194.83,105.051 193.68,105.728 192.6,106.5C182.835,113.481 176.91,122.238 179.454,134.928C179.812,136.717 180.22,138.554 180.145,140.35C180.098,141.498 179.441,142.885 178.587,143.616C178.192,143.954 176.65,143.037 175.676,142.585C175.04,142.289 174.492,141.806 173.423,141.079C171.995,149.359 170.371,156.997 169.442,164.72C168.708,170.819 171.509,174.427 177.615,176.87C185.604,180.067 189.264,179.691 193.258,174.594C199.286,166.902 199.572,157.579 200.743,149.012C198.291,148.473 196.537,148.087 194.782,147.701C195.843,146.253 196.915,144.812 197.963,143.355C199.946,140.6 202.164,137.975 203.818,135.033C205.354,132.302 205.896,128.986 207.559,126.36C210.723,121.367 211.04,116.32 209.977,110.633C207.803,98.998 207.004,98.45 195.947,104.331M177.482,103.881C177.321,105.541 177.159,107.2 176.997,108.86C186.509,97.555 198.064,91.287 212.073,89.633C214.373,95.323 216.637,100.923 219.292,107.488C223.719,100.043 226.604,93.376 225.227,85.264C223.603,75.695 219.344,71.674 209.968,71.967C202.041,72.215 195.097,74.925 189.216,80.411C182.581,86.601 179.37,94.452 177.482,103.881M210.763,101.125C212.065,106.761 213.367,112.396 214.663,118.008C217.042,111.571 214.463,100.083 209.305,96.309C209.812,98.035 210.165,99.234 210.763,101.125M204.051,97.025C204.587,96.533 205.122,96.041 205.658,95.549C205.395,95.074 205.133,94.6 204.871,94.125C199.991,96.327 195.11,98.529 190.23,100.731C190.455,101.267 190.679,101.804 190.904,102.34C195.07,100.648 199.235,98.956 204.051,97.025Z" style="fill:rgb(21,57,95);fill-rule:nonzero;"/>
    <path d="M415.303,147.737C418.399,140.78 423.916,137.232 429.977,137.241C431.223,137.243 434.453,139.122 434.72,140.687C438.123,160.681 441.297,180.716 444.365,200.765C445.481,208.051 442.847,213.923 436.425,217.733C426.55,223.591 402.015,236.941 399.62,237.605C395.823,238.658 393.072,237.572 392.15,233.357C390.444,225.562 388.929,217.715 386.919,209.998C384.577,201.012 382.054,192.053 379.129,183.242C375.231,171.5 377.096,167.079 388.549,162.181C392.603,160.447 394.958,161.382 395.743,165.769C397.646,176.411 399.443,187.072 401.446,197.695C402.43,202.915 403.607,208.113 405.018,213.232C405.978,216.72 408.481,217.954 412.008,216.572C413.558,215.965 415.144,215.442 416.663,214.767C425.63,210.779 427.531,207.269 425.357,197.393C423.175,187.479 420.412,177.691 418.292,167.766C416.911,161.301 414.493,148.453 415.303,147.737Z" style="fill:rgb(21,57,95);fill-rule:nonzero;"/>
    <path d="M317.563,215.072C317.188,209.512 322.462,204.45 326.5,201.437C334.837,195.214 344.2,190.34 353.285,185.165C355.037,184.167 357.459,183.982 359.557,184.032C364.027,184.139 367.115,186.833 368.665,190.743C370.098,194.355 368.72,197.922 365.665,200.066C360.097,203.973 354.137,207.316 348.448,211.058C345.411,213.055 342.366,215.154 339.77,217.667C338.266,219.123 336.428,220.877 336.63,223.45C336.63,223.45 337.24,224.371 337.545,224.831C339.771,226.001 343.009,224.336 345.296,223.194C351.388,220.154 357.213,216.582 363.178,213.284C368.463,210.362 372.638,210.852 374.795,216.185C377.675,223.305 380.254,230.929 380.829,238.498C381.49,247.197 375.225,253.338 368.368,257.734C361.831,261.924 354.765,265.459 347.555,268.343C344.751,269.464 340.385,268.966 337.714,267.46C335.291,266.094 333.057,262.415 332.918,259.646C332.819,257.678 336.024,255.047 338.304,253.552C344.681,249.37 351.471,245.817 357.826,241.605C360.14,240.071 363.731,236.836 363.584,235.213C363.306,234.7 363.028,234.186 362.75,233.672C360.659,233.171 358.719,234.026 357.039,234.871C351.392,237.712 345.889,240.84 340.352,243.896C332.312,248.333 327.557,247.078 324.27,238.445C321.439,231.01 319.772,223.132 317.563,215.072Z" style="fill:rgb(21,57,95);fill-rule:nonzero;"/>
    <path d="M263.798,239.961C262.096,232.024 262.693,230.553 269.467,227.407C277.298,223.769 285.085,219.967 293.149,216.921C302.433,213.415 307.115,215.174 310.538,224.337C314.179,234.081 316.994,244.214 319.198,254.388C320.965,262.545 318.044,269.183 310.158,273.569C300.879,278.73 300.731,279.787 302.682,290.721C303.523,295.434 298.767,300.925 292.474,302.432C287.612,303.597 286.163,299.875 285.321,296.608C280.28,277.043 273.115,258.316 263.798,239.961M306.075,241.415C304.802,238.675 302.714,238.449 300.264,239.614C297.859,240.757 295.429,241.874 293.132,243.212C287.971,246.219 287.612,254.755 292.457,258.225C292.959,258.584 293.674,258.831 294.285,258.822C302.085,258.701 308.649,249.612 306.075,241.415Z" style="fill:rgb(21,57,95);fill-rule:nonzero;"/>
    <path d="M297.306,69.282C304.071,65.943 310.341,69.338 317.088,69.565C319.733,68.419 322.014,67.454 324.306,66.514C332.054,63.334 337.449,66.821 337.818,75.117C337.966,78.438 338.449,81.744 338.81,85.912C339.227,91.159 339.612,95.551 339.998,99.942C340.775,112.722 341.568,125.5 342.323,138.28C342.852,147.246 343.422,156.211 343.764,165.184C343.851,167.46 343.408,169.847 342.747,172.044C340.104,180.837 331.01,184.722 323.368,179.654C319.377,177.008 315.756,173.014 313.4,168.824C300.259,145.456 287.553,121.844 274.716,98.305C274.08,97.14 273.562,95.902 273.076,94.664C269.595,85.781 271.257,82.414 280.673,80.735C287.954,79.437 293.081,75.457 297.306,69.282M340.012,157.892C340.012,157.892 340.061,157.751 340.029,156.964C339.977,156.175 339.924,155.385 339.734,153.784C339.04,143.829 338.366,133.872 337.646,123.919C336.446,107.31 335.2,90.703 334.012,74.093C333.782,70.872 332.283,69.135 328.953,69.324C325.107,69.542 326.239,72.32 326.39,74.509C327.596,91.95 328.841,109.389 330.044,126.83C330.435,132.488 328.346,134.366 322.816,134.144C320.864,134.065 318.562,134.619 316.95,135.686C312.21,138.824 310.4,138.546 307.636,133.303C300.101,119.008 292.611,104.69 285.102,90.381C284.483,89.201 284.142,87.542 283.163,86.96C281.54,85.994 279.334,85.019 277.702,85.411C276.65,85.663 275.277,88.602 275.633,89.904C276.583,93.392 278.161,96.768 279.889,99.973C291.192,120.94 302.6,141.85 314.094,163.326C314.546,163.874 314.997,164.422 315.729,165.656C318.759,169.274 321.322,173.481 324.942,176.355C329.202,179.738 334.732,178.517 337.535,174.223C338.921,172.099 339.371,169.365 340.536,166.372C340.546,164.998 340.555,163.625 340.378,161.429C340.372,160.588 340.366,159.747 340.423,158.658C340.429,158.39 340.334,158.16 340.012,157.892M306.048,79.548C310.222,94.636 314.396,109.723 318.572,124.811C318.75,125.453 318.74,126.322 319.163,126.689C320.606,127.947 322.204,129.029 323.743,130.177C324.598,128.69 326.272,127.151 326.182,125.723C325.151,109.274 323.869,92.842 322.59,76.41C322.496,75.199 321.905,74.026 321.859,73.871C315.544,73.074 310.118,72.389 303.943,71.61C304.674,74.403 305.247,76.594 306.048,79.548M302.282,115.213C305.604,121.432 308.925,127.651 312.246,133.87C312.968,133.827 313.689,133.784 314.411,133.741C314.754,131.683 315.815,129.435 315.328,127.596C310.871,110.749 306.154,93.971 301.475,77.183C301.138,75.973 300.504,74.846 299.961,73.567C295.284,77.243 290.929,80.665 286.185,84.394C291.363,94.302 296.655,104.43 302.282,115.213Z" style="fill:rgb(21,57,95);fill-rule:nonzero;"/>
    <path d="M285.583,357.797C284.416,356.812 282.76,356.048 282.194,354.792C281.268,352.738 280.784,349.737 280.136,347.117C290.809,344.229 301.916,342.481 312.66,339.737C315.079,339.119 317.52,337.578 319.35,335.833C329.19,326.448 339.095,316.559 349.072,306.828C351.331,309.738 353.373,311.87 355.756,314.95C345.998,325.331 336.033,335.303 326.814,344.669C333.105,351.259 339.157,357.871 345.528,364.161C348.904,367.494 351.409,371.014 351.469,375.809C348.226,376.885 344.109,377.936 340.977,378.984C339.7,376.603 339.601,374.015 338.163,372.51C331.637,365.68 324.857,359.089 318.047,352.539C316.967,351.501 315.068,350.272 313.881,350.55C304.55,352.738 295.489,355.443 286.213,357.868C286.067,357.906 285.729,357.759 285.583,357.797Z" style="fill:rgb(211,181,131);fill-rule:nonzero;"/>
    <path d="M292.947,328.064C285.009,330.593 277.092,332.657 269.424,334.795C267.971,335.2 265.894,334.987 264.637,334.204C258.016,330.084 251.451,325.848 245.106,321.319C242.117,319.186 241.449,315.889 242.954,312.369C245.239,307.02 247.077,301.418 249.926,296.389C253.446,290.176 257.966,287.649 263.931,292.832C267.063,295.553 270.513,297.907 273.656,300.616C276.098,302.721 277.038,305.865 274.538,307.983C272.996,309.289 269.537,309.565 267.523,308.788C264.56,307.644 262.119,305.147 258.675,302.664C257.148,306.347 255.79,309.463 254.591,312.639C254.335,313.316 254.4,314.35 254.749,314.981C257.189,319.409 268.841,324.108 273.827,322.729C276.387,322.021 278.894,321.108 281.472,320.478C284.112,319.833 285.909,318.825 286.235,315.657C286.336,314.676 288.941,313.057 289.643,313.007C292.3,312.815 297.087,311.944 296.732,316.664C296.456,320.351 294.603,324.25 292.947,328.064Z" style="fill:rgb(211,181,131);fill-rule:nonzero;"/>
    <path d="M340.021,99.95C339.36,95.363 339.072,90.312 338.763,85.461C351.558,94.643 364.446,105.111 377.126,114.802C378.423,115.793 379.845,117.022 380.443,118.459C384.775,128.868 388.909,139.359 393.227,150.127C389.823,151.835 387.056,153.223 383.653,154.93C381.72,150.112 379.367,145.835 378.288,141.258C375.146,127.926 366.909,118.863 355.674,111.758C350.352,108.392 345.321,103.98 340.021,99.95Z" style="fill:rgb(211,181,131);fill-rule:nonzero;"/>
    <path d="M377.664,292.387C370.919,287.18 369.284,286.612 369.284,286.612C369.284,286.612 380.473,261.107 386.064,248.54C386.512,247.533 388.832,246.824 390.229,246.903C392.303,247.02 394.329,247.965 396.648,248.637C396.599,249.393 396.757,250.252 396.469,250.92C391.014,263.559 385.521,276.182 379.979,288.783C379.524,289.818 378.628,291.21 377.664,292.387Z" style="fill:rgb(211,181,131);fill-rule:nonzero;"/>
    <path d="M178.655,368.135C185.639,364.205 192.499,360.565 199.383,356.97C207.361,352.804 209.598,353.256 214.289,361.173C214.336,365.058 212.924,368.918 213.855,372.176C214.877,375.753 214.659,378.708 211.326,380.823C209.387,377.698 207.81,374.21 206.58,371.128C205.275,367.859 203.722,366.713 200.241,368.719C193.901,372.371 187.375,375.707 180.851,379.026C178.313,380.318 177.523,381.958 178.476,384.653C180.918,391.554 183.149,398.532 185.734,405.377C186.326,406.943 187.751,408.586 189.228,409.363C199.683,414.862 210.202,420.248 220.847,425.365C222.156,425.995 225.086,425.449 225.972,424.378C229.447,420.18 232.204,415.136 235.354,410.669C239.674,410.638 244.391,410.782 249.217,410.804C243.147,419.611 236.552,428.752 229.625,437.219C228.46,438.643 224.476,439.298 222.695,438.44C208.468,431.582 194.417,424.352 180.434,417.003C178.723,416.103 177.183,414.021 176.509,412.147C173.021,402.45 169.777,392.663 166.586,382.862C165.237,378.719 165.664,374.934 170.265,372.302C171.211,372.254 171.898,373.24 172.504,373.441C177.835,375.21 178.122,374.115 178.655,368.135Z" style="fill:rgb(211,181,131);fill-rule:nonzero;"/>
    <path d="M287.83,398.9C290.129,396.11 292.853,393.754 294.931,391.025C298.232,386.69 297.7,383.121 294.439,378.81C293.526,377.603 293.465,375.434 293.765,373.417C296.563,372.51 299.121,371.387 301.236,371.615C307.155,372.252 313.023,373.416 318.883,374.522C322.066,375.123 324.424,377.339 323.379,380.43C322.731,382.345 319.933,384.51 317.883,384.756C314.361,385.179 310.646,384.335 307.059,383.743C304.428,383.309 301.995,382.768 301.369,386.36C300.757,389.874 296.463,393.515 301.817,396.839C306.611,399.816 311.185,403.184 316.148,405.83C317.717,406.666 320.753,406.483 322.212,405.467C326.686,402.351 330.829,398.724 334.889,395.061C337.537,392.671 339.576,389.67 342.02,387.054C345.545,387.347 349.954,387.718 353.825,388.025C353.183,390.675 352.283,394.224 350.437,395.931C342.665,403.115 334.365,409.725 326.367,416.67C322.457,420.066 318.551,420.654 314.235,417.608C305.478,411.429 296.756,405.422 287.83,398.9Z" style="fill:rgb(211,181,131);fill-rule:nonzero;"/>
    <path d="M353.085,383.352C350.667,383.963 348.525,384.315 346.383,384.667C346.25,384.123 346.117,383.58 345.985,383.037C346.596,382.667 347.163,382.137 347.825,381.951C354.501,380.082 357.727,375.272 360.588,369.184C368.146,353.099 367.638,336.628 364.314,319.899C363.879,317.706 362.083,315.546 360.411,313.879C354.551,308.036 349.489,301.688 347.29,293.579C345.205,285.89 347.128,283.89 354.841,285.483C364.609,287.5 372.857,291.971 379.04,300.14C380.398,301.934 383.226,303.284 385.53,303.559C391.173,304.231 396.051,306.136 401.652,310.908C396.968,311.999 393.399,313.61 389.925,313.427C386.203,313.232 385.291,314.171 386.06,317.45C389.683,332.883 384.311,345.899 375.183,357.88C372.664,361.187 369.921,364.324 367.341,367.586C364.103,371.681 363.246,375.962 365.365,381.065C366.904,384.771 367.418,388.902 368.643,393.872C360.88,391.248 361.192,384.644 358.486,379.565C356.538,380.906 354.95,381.999 353.085,383.352M363.373,297.139C360.859,295.759 358.345,294.379 355.831,292.999C355.531,293.481 355.231,293.962 354.931,294.444C355.651,295.199 356.267,296.105 357.107,296.686C374.908,308.997 379.354,321.329 373.653,342.546C373.386,343.54 373.619,344.667 373.619,346.882C383.198,335.06 380.497,309.5 363.373,297.139Z" style="fill:rgb(223,92,86);fill-rule:nonzero;"/>
    <path d="M341.942,387.04C339.816,389.871 337.537,392.671 334.889,395.061C330.829,398.724 326.686,402.351 322.212,405.467C320.753,406.483 317.717,406.666 316.148,405.83C311.185,403.184 306.611,399.816 301.817,396.839C296.463,393.515 300.757,389.874 301.369,386.36C301.995,382.768 304.428,383.309 307.059,383.743C310.646,384.335 314.361,385.179 317.883,384.756C319.933,384.51 322.731,382.345 323.379,380.43C324.424,377.339 322.066,375.123 318.883,374.522C313.023,373.416 307.155,372.252 301.236,371.615C299.121,371.387 296.274,372.941 293.727,373.685C293.719,371.596 295.018,368.973 294.892,366.728C294.598,361.516 291.366,358.824 285.979,357.91C295.005,355.337 304.403,352.773 313.881,350.55C315.068,350.272 316.967,351.501 318.047,352.539C324.857,359.089 331.637,365.68 338.163,372.51C339.601,374.015 339.974,376.54 340.869,379.006C336.49,383.358 336.529,383.756 341.942,387.04Z" style="fill:rgb(192,228,251);fill-rule:nonzero;"/>
    <path d="M351.514,375.835C351.125,371.102 348.904,367.494 345.528,364.161C339.157,357.871 333.105,351.259 326.814,344.669C336.033,335.303 345.74,325.067 355.634,314.986C356.991,315.644 357.969,317.091 357.984,317.105C354.913,325.347 351.988,332.671 349.477,340.133C347.958,344.649 349.369,346.045 354.041,345.012C356.913,344.377 359.677,343.257 363.032,342.181C362.42,354.711 359.439,365.983 351.514,375.835Z" style="fill:rgb(188,225,249);fill-rule:nonzero;"/>
    <path d="M362.262,329.636C363.271,337.495 361.234,340.023 352.849,340.603C355.189,334.492 357.373,328.786 359.557,323.081C360.189,323.161 360.822,323.241 361.455,323.321C361.705,325.289 361.956,327.256 362.262,329.636Z" style="fill:rgb(213,89,85);fill-rule:nonzero;"/>
    <path d="M103.541,335.575C102.599,334.661 98.672,332.637 100.189,332.1C103.523,330.918 116.113,329.582 123.547,328.486C130.42,327.472 129.53,324.976 127.559,318.554C123.641,305.786 123.63,290.187 126.459,289.993C129.289,289.799 141.263,299.559 145.356,319.325C155.395,314.144 172.237,303.479 181.358,306.446C185.271,307.719 163.22,330.793 159.123,334.167C156.191,336.582 156.279,337.094 158.443,339.746C163.554,346.011 168.286,352.629 172.635,359.447C174.185,361.877 178.738,369.519 175.294,370.011C169.514,370.837 143.537,350.332 142.063,349.475C141.389,351.091 140.604,352.67 140.06,354.329C137.695,361.552 135.527,368.843 132.995,376.006C132.32,377.917 130.852,383.144 128.933,381.781C125.137,379.087 121.159,367.839 122.234,359.856C122.741,356.093 123.421,351.934 124.634,348.317C125.779,344.905 126.013,344.689 122.105,343.585C115.932,341.843 109.324,338.795 103.541,335.575ZM157.885,348.584C155.943,347.285 154.001,345.985 152.059,344.686C151.545,345.321 151.03,345.956 150.515,346.592C153.341,349.304 156.057,352.148 159.053,354.656C160.1,355.533 163.643,355.987 163.643,355.987C163.643,355.987 162.484,353.182 161.69,352.053C160.86,350.873 159.532,350.043 157.885,348.584M129.258,356.823C128.569,359.357 127.73,361.865 127.276,364.44C127.126,365.291 127.97,366.316 128.359,367.262C129.176,366.627 130.441,366.15 130.73,365.329C131.708,362.552 132.538,359.686 133.023,356.786C133.269,355.314 132.658,353.698 132.434,352.147C131.466,353.458 130.498,354.77 129.258,356.823M152.384,324.999C152.024,326.003 151.603,326.995 151.385,328.029C151.359,328.154 152.443,328.744 152.995,328.719C155.308,328.617 163.322,317.147 163.22,316.527C163.118,315.907 155.996,322.175 152.384,324.999M123.251,337.169C125.008,336.907 127.661,336.901 128.522,336.382C129.187,335.982 129.18,334.192 128.416,334.056C125.976,333.62 118.726,333.786 113.881,333.767C113.54,333.765 112.793,335.024 112.923,335.204C113.433,335.916 114.172,336.866 114.907,336.941C117.37,337.193 120.47,337.093 123.251,337.169M135.329,312.141C134.561,310.509 133.327,308.125 132.49,307.536C131.828,307.07 130.174,307.807 130.308,308.606C130.663,310.717 133.037,316.397 134.618,320.202C134.936,320.969 136.572,322.086 137.107,321.864C137.642,321.643 138.043,319.76 137.828,318.873C137.329,316.813 136.219,314.03 135.329,312.141Z" style="fill:rgb(224,92,86);fill-rule:nonzero;"/>
    <path d="M135.16,199.583C143.153,203.16 145.059,206.226 141.881,213.703C140.175,217.718 131.857,212.972 129.833,210.057C128.331,207.895 128.53,202.821 130.373,199.965C131.363,198.429 133.631,198.899 135.16,199.583Z" style="fill:rgb(204,176,129);fill-rule:nonzero;"/>
    <path d="M235.166,410.928C232.404,415.553 229.447,420.18 225.972,424.378C225.086,425.449 222.156,425.995 220.847,425.365C210.202,420.248 199.683,414.862 189.228,409.363C187.751,408.586 186.326,406.943 185.734,405.377C183.149,398.532 180.918,391.554 178.476,384.653C177.523,381.958 178.313,380.318 180.851,379.026C187.375,375.707 193.901,372.371 200.241,368.719C203.722,366.713 205.275,367.859 206.58,371.128C207.81,374.21 209.914,377.169 211.56,380.523C210.971,383.077 210.822,383.955 210.361,385.869C209.134,388.605 208.117,390.582 207.183,392.691C205.614,396.232 204.608,399.97 208.869,402.15C213.197,404.364 214.962,400.624 216.876,397.751C217.149,397.341 217.4,396.757 217.648,396.331C219.324,397.358 221.026,398.455 222.631,399.582C223.527,400.211 224.975,401.221 224.89,401.899C223.914,409.744 230.026,409.467 235.166,410.928Z" style="fill:rgb(192,228,251);fill-rule:nonzero;"/>
    <path d="M263.105,373.823C262.823,378.299 261.232,380.124 256.44,380.143C245.782,380.186 245.349,380.625 244.224,369.554C243.478,362.216 243.573,354.655 244.447,347.332C245.188,341.12 248.323,339.233 253.935,339.354C259.517,339.474 262.738,341.485 263.218,347.643C263.882,356.155 263.343,364.82 263.105,373.823Z" style="fill:rgb(221,90,84);fill-rule:nonzero;"/>
    <path d="M241.453,395.284C242.002,396.432 242.372,397.281 242.742,398.129C231.388,391.07 221.33,382.915 216.92,369.879C215.244,364.925 218.027,361.364 222.995,361.593C224.315,361.654 226.209,362.751 226.761,363.893C231.735,374.191 236.469,384.604 241.453,395.284Z" style="fill:rgb(215,89,84);fill-rule:nonzero;"/>
    <path d="M272.843,382.823C275.486,376.703 278.129,370.973 280.337,365.082C281.292,362.536 282.521,360.548 285.185,361.646C287.347,362.536 289.81,364.293 290.66,366.293C291.415,368.07 290.618,370.939 289.674,372.933C284.708,383.423 276.344,390.873 267.378,397.719C266.937,397.465 266.496,397.211 266.055,396.958C268.258,392.355 270.462,387.752 272.843,382.823Z" style="fill:rgb(215,89,84);fill-rule:nonzero;"/>
    <path d="M266.777,371.925C267.171,365.374 267.471,359.252 268.085,353.166C268.256,351.463 269.441,348.941 270.76,348.469C273.448,347.508 276.822,347.862 277.645,351.357C278.302,354.148 278.671,357.508 277.723,360.084C274.587,368.603 270.809,376.887 267.224,385.239C267.013,385.729 266.327,386.016 264.591,386.038C265.346,381.482 265.955,376.916 266.777,371.925Z" style="fill:rgb(213,88,84);fill-rule:nonzero;"/>
    <path d="M243.13,384.718C242.327,385.339 240.898,385.917 240.793,385.734C235.325,376.224 229.944,366.642 229.223,355.349C229.123,353.781 229.356,351.287 230.308,350.738C232.502,349.473 235.211,348.915 237.769,348.666C238.172,348.627 239.179,351.662 239.395,353.342C240.719,363.658 241.895,373.992 243.13,384.718Z" style="fill:rgb(216,89,84);fill-rule:nonzero;"/>
    <path d="M259.513,385.027C261.576,386.503 265.344,391.362 262.278,396.94C260.361,400.426 258.39,401.296 254.722,401.728C248.48,402.465 246.479,397.934 245.558,394.02C244.927,391.34 246.827,386.81 249.099,385.064C251.219,383.435 257.221,383.386 259.513,385.027Z" style="fill:rgb(215,89,84);fill-rule:nonzero;"/>
    <path d="M224.786,396.553C221.586,393.924 218.169,391.66 215.823,388.778C214.702,387.402 215.186,384.611 215.301,382.481C215.315,382.227 218.202,381.481 218.722,382C225.092,388.357 231.268,394.907 237.159,402.3C233.087,400.404 229.174,398.632 224.786,396.553Z" style="fill:rgb(204,88,85);fill-rule:nonzero;"/>
    <path d="M286.199,385.123C288.154,383.759 289.88,382.673 291.606,381.588C291.652,384.139 292.78,387.547 291.556,389.094C286.317,395.715 279.148,399.497 273.68,400.615C276.885,396.647 281.427,391.024 286.199,385.123Z" style="fill:rgb(207,88,85);fill-rule:nonzero;"/>
    <path d="M217.647,396.293C217.529,396.96 217.166,397.413 216.893,397.823C214.98,400.696 213.197,404.364 208.869,402.15C204.608,399.97 205.614,396.232 207.183,392.691C208.117,390.582 209.345,387.677 210.498,385.31C211.794,389.468 214.457,393.314 217.647,396.293Z" style="fill:rgb(211,181,131);fill-rule:nonzero;"/>
    <path d="M239.427,402.496C239.399,402.451 239.454,402.54 239.427,402.496Z" style="fill:rgb(204,88,85);fill-rule:nonzero;"/>
    <path d="M196.269,104.153C207.004,98.45 207.803,98.998 209.977,110.633C211.04,116.32 210.723,121.367 207.559,126.36C205.896,128.986 205.354,132.302 203.818,135.033C202.164,137.975 199.946,140.6 197.963,143.355C196.915,144.812 195.843,146.253 194.782,147.701C196.537,148.087 198.291,148.473 200.743,149.012C199.572,157.579 199.286,166.902 193.258,174.594C189.264,179.691 185.604,180.067 177.615,176.87C171.509,174.427 168.708,170.819 169.442,164.72C170.371,156.997 171.995,149.359 173.423,141.079C174.492,141.806 175.04,142.289 175.676,142.585C176.65,143.037 178.192,143.954 178.587,143.616C179.441,142.885 180.098,141.498 180.145,140.35C180.22,138.554 179.812,136.717 179.454,134.928C176.91,122.238 182.835,113.481 192.6,106.5C193.68,105.728 194.83,105.051 196.269,104.153Z" style="fill:rgb(224,90,84);fill-rule:nonzero;"/>
    <path d="M177.554,103.488C179.37,94.452 182.581,86.601 189.216,80.411C195.097,74.925 202.041,72.215 209.968,71.967C219.344,71.674 223.603,75.695 225.227,85.264C226.604,93.376 223.719,100.043 219.292,107.488C216.637,100.923 214.373,95.323 212.073,89.633C198.064,91.287 186.509,97.555 176.997,108.86C177.159,107.2 177.321,105.541 177.554,103.488Z" style="fill:rgb(221,90,84);fill-rule:nonzero;"/>
    <path d="M210.64,100.779C210.165,99.234 209.812,98.035 209.305,96.309C214.463,100.083 217.042,111.571 214.663,118.008C213.367,112.396 212.065,106.761 210.64,100.779Z" style="fill:rgb(21,57,95);fill-rule:nonzero;"/>
    <path d="M203.739,97.425C199.248,99.236 195.07,100.648 190.904,102.34C190.679,101.804 190.455,101.267 190.23,100.731C195.11,98.529 199.991,96.327 204.871,94.125C205.133,94.6 205.395,95.074 205.658,95.549C205.122,96.041 204.6,96.814 203.739,97.425Z" style="fill:rgb(21,57,95);fill-rule:nonzero;"/>
    <path d="M306.231,241.768C308.649,249.612 302.085,258.701 294.285,258.822C293.674,258.831 292.959,258.584 292.457,258.225C287.612,254.755 287.971,246.219 293.132,243.212C295.429,241.874 297.859,240.757 300.264,239.614C302.714,238.449 304.802,238.675 306.231,241.768Z" style="fill:rgb(181,219,245);fill-rule:nonzero;"/>
    <path d="M314.022,163.337C302.648,142.408 291.192,120.94 279.889,99.973C278.161,96.768 276.583,93.392 275.633,89.904C275.277,88.602 276.65,85.663 277.702,85.411C279.334,85.019 281.54,85.994 283.163,86.96C284.142,87.542 284.483,89.201 285.102,90.381C292.611,104.69 300.101,119.008 307.636,133.303C310.4,138.546 312.21,138.824 316.95,135.686C318.562,134.619 320.864,134.065 322.816,134.144C328.346,134.366 330.435,132.488 330.044,126.83C328.841,109.389 327.596,91.95 326.39,74.509C326.239,72.32 325.107,69.542 328.953,69.324C332.283,69.135 333.782,70.872 334.012,74.093C335.2,90.703 336.446,107.31 337.646,123.919C338.071,129.791 338.66,135.913 339.168,142.049C339.521,146.314 339.834,150.587 340.024,154.787C338.725,152.687 337.327,149.472 336.004,147.238C335.07,145.662 333.786,143.8 332.218,143.181C325.726,140.617 319.692,139.923 314.901,147.032C312.945,149.936 311.862,152.133 312.962,155.527C313.703,157.813 313.712,160.911 314.022,163.337Z" style="fill:rgb(215,89,84);fill-rule:nonzero;"/>
    <path d="M305.934,79.167C305.247,76.594 304.674,74.403 303.943,71.61C310.118,72.389 315.544,73.074 321.859,73.871C321.905,74.026 322.496,75.199 322.59,76.41C323.869,92.842 325.151,109.274 326.182,125.723C326.272,127.151 324.598,128.69 323.743,130.177C322.204,129.029 320.606,127.947 319.163,126.689C318.74,126.322 318.75,125.453 318.572,124.811C314.396,109.723 310.222,94.636 305.934,79.167Z" style="fill:rgb(219,89,84);fill-rule:nonzero;"/>
    <path d="M302.115,114.885C296.655,104.43 291.363,94.302 286.185,84.394C290.929,80.665 295.284,77.243 299.961,73.567C300.504,74.846 301.138,75.973 301.475,77.183C306.154,93.971 310.871,110.749 315.328,127.596C315.815,129.435 314.754,131.683 314.411,133.741C313.689,133.784 312.968,133.827 312.246,133.87C308.925,127.651 305.604,121.432 302.115,114.885Z" style="fill:rgb(219,89,84);fill-rule:nonzero;"/>
    <path d="M314.096,164.039C313.726,161.339 313.703,157.813 312.962,155.527C311.862,152.133 312.945,149.936 314.901,147.032C319.692,139.923 324.895,138.967 331.387,141.531C332.955,142.151 335.07,145.662 336.004,147.238C337.327,149.472 338.698,152.468 340.066,154.973C340.418,155.882 340.7,156.019 340.42,157.268C337.922,160.013 334.844,162.308 332.918,164.781C330.775,167.534 328.499,168.3 325.126,167.148C322.015,166.085 317.822,166.361 314.588,165.661C314.136,165.113 313.047,165.12 312.535,164.298M316.681,154.976C316.908,155.772 317.136,156.567 317.361,157.364C318.405,161.064 323.073,164.861 327.076,163.493C330.17,162.435 333.429,159.034 334.624,155.913C336.398,151.28 330.835,145.854 324.686,145.124C321.092,144.698 316.632,149.648 316.681,154.976Z" style="fill:rgb(21,57,95);fill-rule:nonzero;"/>
    <path d="M315.589,165.313C318.683,165.67 322.015,166.085 325.126,167.148C328.499,168.3 330.775,167.534 332.918,164.781C334.844,162.308 337.433,160.004 339.947,157.652C340.296,157.586 340.438,158.473 340.438,158.473C340.444,159.314 340.578,160.177 340.568,161.803C340.518,163.891 340.665,164.954 340.631,166.256C339.757,168.714 338.921,172.099 337.535,174.223C334.732,178.517 329.202,179.738 324.942,176.355C321.322,173.481 318.759,169.274 315.589,165.313Z" style="fill:rgb(218,89,84);fill-rule:nonzero;"/>
    <path d="M363.66,297.352C380.497,309.5 383.198,335.06 373.619,346.882C373.619,344.667 373.386,343.54 373.653,342.546C379.354,321.329 374.908,308.997 357.107,296.686C356.267,296.105 355.651,295.199 354.931,294.444C355.231,293.962 355.531,293.481 355.831,292.999C358.345,294.379 360.859,295.759 363.66,297.352Z" style="fill:rgb(21,57,95);fill-rule:nonzero;"/>
    <path d="M158.153,348.823C159.421,349.793 160.86,350.873 161.69,352.053C162.484,353.182 164.324,355.868 163.885,356.302C163.445,356.736 160.1,355.533 159.053,354.656C156.057,352.148 151.681,348.253 150.515,346.592C150.046,345.922 151.274,344.456 152.059,344.686C153.332,345.057 156.548,347.595 158.153,348.823Z" style="fill:rgb(21,57,95);fill-rule:nonzero;"/>
    <path d="M129.394,356.453C130.074,354.832 131.829,352.091 132.434,352.147C133.039,352.202 133.269,355.314 133.023,356.786C132.538,359.686 131.708,362.552 130.73,365.329C130.441,366.15 128.935,367.41 128.359,367.262C127.783,367.114 127.126,365.291 127.276,364.44C127.73,361.865 128.535,358.501 129.394,356.453Z" style="fill:rgb(21,57,95);fill-rule:nonzero;"/>
    <path d="M152.652,324.757C154.625,322.84 162.974,315.912 163.22,316.527C164.306,319.24 155.308,328.617 152.995,328.719C152.443,328.744 151.359,328.154 151.385,328.029C151.603,326.995 151.813,325.572 152.652,324.757Z" style="fill:rgb(21,57,95);fill-rule:nonzero;"/>
    <path d="M122.802,337.16C120.532,337.253 117.37,337.193 114.907,336.941C114.172,336.866 113.433,335.916 112.923,335.204C112.793,335.024 113.54,333.765 113.881,333.767C118.726,333.786 125.976,333.62 128.416,334.056C129.18,334.192 129.201,336.007 128.522,336.382C127.586,336.9 124.724,337.081 122.802,337.16Z" style="fill:rgb(21,57,95);fill-rule:nonzero;"/>
    <path d="M135.49,312.498C136.38,314.388 137.329,316.813 137.828,318.873C138.043,319.76 137.642,321.643 137.107,321.864C136.572,322.086 134.936,320.969 134.618,320.202C133.037,316.397 130.663,310.717 130.308,308.606C130.174,307.807 131.843,307.049 132.49,307.536C133.354,308.185 134.667,310.75 135.49,312.498Z" style="fill:rgb(21,57,95);fill-rule:nonzero;"/>
    <path d="M316.578,154.608C316.632,149.648 321.092,144.698 324.686,145.124C330.835,145.854 336.398,151.28 334.624,155.913C333.429,159.034 330.17,162.435 327.076,163.493C323.073,164.861 318.405,161.064 317.361,157.364C317.136,156.567 316.908,155.772 316.578,154.608Z" style="fill:rgb(21,57,95);fill-rule:nonzero;"/>
</svg>
