<?xml version="1.0" encoding="UTF-8"?>
<svg id="Layer_2" data-name="Layer 2" xmlns="http://www.w3.org/2000/svg" viewBox="0 0 1634.130352 978.002827">
  <defs>
    <style>
      .cls-1 {
        fill: #fff;
      }

      .cls-2 {
        fill: #a20021;
      }

      .cls-3 {
        fill: #ffcd29;
      }

      .cls-4 {
        fill: #edecd8;
      }

      .cls-5 {
        fill: #fcfcfc;
      }
    </style>
  </defs>
  <g id="Layer_1-2" data-name="Layer 1">
    <g>
      <path class="cls-2" d="m.692786,479.024822L63.243144,54.409846C67.847054,23.156798,94.659519.001469,126.244727.00148l1385.409685.000482c31.795505.000011,58.719038,23.456431,63.079878,54.956685l58.782959,424.615019c5.299986,38.284117-24.436968,72.427828-63.079922,72.427815l-1506.743001-.000524c-38.865992-.000014-68.666708-34.518869-63.001539-72.976134Z"/>
      <path class="cls-2" d="m1633.437566,498.977997l-62.550358,424.614977c-4.60391,31.253047-31.416375,54.408376-63.001583,54.408365l-1385.409685-.000482c-31.795505-.000011-58.719038-23.456431-63.079878-54.956685L.613104,498.429153c-5.299986-38.284117,24.436968-72.427828,63.079922-72.427815l1506.743001.000524c38.865992.000014,68.666708,34.518869,63.001539,72.976134Z"/>
    </g>
    <rect class="cls-4" x="110.065176" y="73.001409" width="1414" height="832" rx="77.117335" ry="77.117335"/>
    <g>
      <path class="cls-1" d="m174.809273,61.342853c0-.244517,108.331827-.210091,108.331827,0,0,23.71847-24.638375,54-54.415526,54s-53.916301-27.11047-53.916301-54Z"/>
      <path class="cls-2" d="m281.20098,61.342853c0-.244517,108.331827-.210091,108.331827,0,0,23.71847-24.638375,54-54.415526,54s-53.916301-27.11047-53.916301-54Z"/>
      <path class="cls-1" d="m389.532807,61.342853c0-.244517,108.331827-.210091,108.331827,0,0,23.71847-24.638375,54-54.415526,54s-53.916301-27.11047-53.916301-54Z"/>
      <path class="cls-2" d="m495.924514,61.342853c0-.244517,108.331827-.210091,108.331827,0,0,23.71847-24.638375,54-54.415526,54s-53.916301-27.11047-53.916301-54Z"/>
      <path class="cls-1" d="m604.256341,61.342853c0-.244517,108.331827-.210091,108.331827,0,0,23.71847-24.638375,54-54.415526,54s-53.916301-27.11047-53.916301-54Z"/>
      <path class="cls-2" d="m710.648048,61.342853c0-.244517,108.331827-.210091,108.331827,0,0,23.71847-24.638375,54-54.415526,54s-53.916301-27.11047-53.916301-54Z"/>
      <path class="cls-1" d="m818.979875,61.342853c0-.244517,108.331827-.210091,108.331827,0,0,23.71847-24.638375,54-54.415526,54s-53.916301-27.11047-53.916301-54Z"/>
      <path class="cls-2" d="m925.371582,61.342853c0-.244517,108.331827-.210091,108.331827,0,0,23.71847-24.638375,54-54.415526,54s-53.916301-27.11047-53.916301-54Z"/>
      <path class="cls-1" d="m1033.703409,61.342853c0-.244517,108.331827-.210091,108.331827,0,0,23.71847-24.638375,54-54.415526,54s-53.916301-27.11047-53.916301-54Z"/>
      <path class="cls-2" d="m1140.095116,61.342853c0-.244517,108.331827-.210091,108.331827,0,0,23.71847-24.638375,54-54.415526,54s-53.916301-27.11047-53.916301-54Z"/>
      <path class="cls-1" d="m1248.426943,61.342853c0-.244517,108.331827-.210091,108.331827,0,0,23.71847-24.638375,54-54.415526,54s-53.916301-27.11047-53.916301-54Z"/>
      <path class="cls-2" d="m1354.81865,61.342853c0-.244517,108.331827-.210091,108.331827,0,0,23.71847-24.638375,54-54.415526,54s-53.916301-27.11047-53.916301-54Z"/>
    </g>
    <g>
      <path class="cls-1" d="m1462.235778,918.830688c0,.244517-108.5.210091-108.5,0,0-23.71847,24.676624-54,54.5-54s54,27.11047,54,54Z"/>
      <path class="cls-2" d="m1355.678911,918.830688c0,.244517-108.5.210091-108.5,0,0-23.71847,24.676624-54,54.5-54s54,27.11047,54,54Z"/>
      <path class="cls-1" d="m1247.178911,918.830688c0,.244517-108.5.210091-108.5,0,0-23.71847,24.676624-54,54.5-54s54,27.11047,54,54Z"/>
      <path class="cls-2" d="m1140.622043,918.830688c0,.244517-108.5.210091-108.5,0,0-23.71847,24.676624-54,54.5-54s54,27.11047,54,54Z"/>
      <path class="cls-1" d="m1032.122043,918.830688c0,.244517-108.5.210091-108.5,0,0-23.71847,24.676624-54,54.5-54s54,27.11047,54,54Z"/>
      <path class="cls-2" d="m925.565176,918.830688c0,.244517-108.5.210091-108.5,0,0-23.71847,24.676624-54,54.5-54s54,27.11047,54,54Z"/>
      <path class="cls-1" d="m817.065176,918.830688c0,.244517-108.5.210091-108.5,0,0-23.71847,24.676624-54,54.5-54s54,27.11047,54,54Z"/>
      <path class="cls-2" d="m710.508309,918.830688c0,.244517-108.5.210091-108.5,0,0-23.71847,24.676624-54,54.5-54s54,27.11047,54,54Z"/>
      <path class="cls-1" d="m602.008309,918.830688c0,.244517-108.5.210091-108.5,0,0-23.71847,24.676624-54,54.5-54s54,27.11047,54,54Z"/>
      <path class="cls-2" d="m495.451441,918.830688c0,.244517-108.5.210091-108.5,0,0-23.71847,24.676624-54,54.5-54s54,27.11047,54,54Z"/>
      <path class="cls-1" d="m386.951441,918.830688c0,.244517-108.5.210091-108.5,0,0-23.71847,24.676624-54,54.5-54s54,27.11047,54,54Z"/>
      <path class="cls-2" d="m280.394574,918.830688c0,.244517-108.5.210091-108.5,0,0-23.71847,24.676624-54,54.5-54s54,27.11047,54,54Z"/>
    </g>
    <circle class="cls-3" cx="54.065176" cy="489.001409" r="40"/>
    <path class="cls-1" d="m35.934578,462.105953c-14.461378,9.852621-17.042726,25.504066-11.956255,35.540325,1.37673,2.716465,6.031192,1.589308,6.881182-1.771985,1.929982-7.632127,5.688923-16.338587,13.01004-21.326506,7.414048-5.051234,16.640011-5.681751,24.347825-4.926989,3.849204.376921,6.636044-3.776115,4.516268-6.394223-5.324853-6.576657-22.401692-10.929632-36.79906-1.120623Z"/>
    <g>
      <circle class="cls-3" cx="110.065176" cy="46.631045" r="21.17127"/>
      <path class="cls-1" d="m99.214015,32.395772c-7.654143,5.214812-9.020404,13.498836-6.328227,18.810845.728678,1.437775,3.1922.841192,3.642084-.937879,1.021504-4.039545,3.011043-8.647716,6.885977-11.28773,3.92412-2.673526,8.807254-3.007247,12.886859-2.607765,2.037314.199497,3.512337-1.998629,2.390378-3.384345-2.818348-3.480904-11.856806-5.784855-19.47707-.593125Z"/>
    </g>
    <g>
      <circle class="cls-3" cx="103.767749" cy="926.001957" r="21.17127"/>
      <path class="cls-1" d="m94.171555,940.237231c-7.654143-5.214812-9.020404-13.498836-6.328227-18.810845.728678-1.437775,3.1922-.841192,3.642084.937879,1.021504,4.039545,3.011043,8.647716,6.885977,11.28773,3.92412,2.673526,8.807254,3.007247,12.886859,2.607765,2.037314-.199497,3.512337,1.998629,2.390378,3.384345-2.818348,3.480904-11.856806,5.784855-19.47707.593125Z"/>
    </g>
    <circle class="cls-3" cx="1579.867232" cy="489.001409" r="40"/>
    <path class="cls-1" d="m1597.99783,462.105953c14.461378,9.852621,17.042726,25.504066,11.956255,35.540325-1.37673,2.716465-6.031192,1.589308-6.881182-1.771985-1.929982-7.632127-5.688923-16.338587-13.01004-21.326506-7.414048-5.051234-16.640011-5.681751-24.347825-4.926989-3.849204.376921-6.636044-3.776115-4.516268-6.394223,5.324853-6.576657,22.401692-10.929632,36.79906-1.120623Z"/>
    <g>
      <circle class="cls-3" cx="1524.065176" cy="46.631045" r="21.17127"/>
      <path class="cls-5" d="m1533.661371,32.395772c7.654143,5.214812,9.020404,13.498836,6.328227,18.810845-.728678,1.437775-3.1922.841192-3.642084-.937879-1.021504-4.039545-3.011043-8.647716-6.885977-11.28773-3.92412-2.673526-8.807254-3.007247-12.886859-2.607765-2.037314.199497-3.512337-1.998629-2.390378-3.384345,2.818348-3.480904,11.856806-5.784855,19.47707-.593125Z"/>
    </g>
    <g>
      <circle class="cls-3" cx="1527.138743" cy="926.001957" r="21.17127"/>
      <path class="cls-5" d="m1536.734937,940.237231c7.654143-5.214812,9.020404-13.498836,6.328227-18.810845-.728678-1.437775-3.1922-.841192-3.642084.937879-1.021504,4.039545-3.011043,8.647716-6.885977,11.28773-3.92412,2.673526-8.807254,3.007247-12.886859,2.607765-2.037314-.199497-3.512337,1.998629-2.390378,3.384345,2.818348,3.480904,11.856806,5.784855,19.47707.593125Z"/>
    </g>
    <rect class="cls-1" x="171.894574" y=".001494" width="108.5" height="73.170638"/>
    <rect class="cls-1" x="387.894574" y=".001494" width="108.5" height="73.170638"/>
    <rect class="cls-1" x="603.894574" y=".001494" width="108.5" height="73.170638"/>
    <rect class="cls-1" x="817.065176" y=".001494" width="108.5" height="73.170638"/>
    <rect class="cls-1" x="1031.065176" y=".001494" width="108.5" height="73.170638"/>
    <rect class="cls-1" x="1247.065176" y=".001494" width="108.5" height="73.170638"/>
    <rect class="cls-1" x="279.479875" y="904.830688" width="108.5" height="73.170638"/>
    <rect class="cls-1" x="495.479875" y="904.830688" width="108.5" height="73.170638"/>
    <rect class="cls-1" x="711.479875" y="904.830688" width="108.5" height="73.170638"/>
    <rect class="cls-1" x="924.650477" y="904.830688" width="108.5" height="73.170638"/>
    <rect class="cls-1" x="1138.650477" y="904.830688" width="108.5" height="73.170638"/>
    <rect class="cls-1" x="1354.650477" y="904.830688" width="108.5" height="73.170638"/>
    <rect class="cls-2" x="144.162879" width="1345.804594" height="25.459776"/>
    <rect class="cls-2" x="160.162879" y="947.173227" width="1345.804594" height="30.829601"/>
  </g>
</svg>