<?xml version="1.0" encoding="UTF-8" standalone="no"?>
<!-- Created with Inkscape (http://www.inkscape.org/) -->

<svg
   width="750"
   height="500"
   viewBox="0 0 198.43752 132.29167"
   version="1.1"
   id="svg1"
   xml:space="preserve"
   xmlns="http://www.w3.org/2000/svg"
   xmlns:svg="http://www.w3.org/2000/svg"><defs
     id="defs1"><linearGradient
       id="swatch10"><stop
         style="stop-color:#24243b;stop-opacity:1;"
         offset="0"
         id="stop10" /></linearGradient></defs><g
     id="g6"
     style="display:inline"><path
       id="rect5"
       style="fill:#ffcc00;fill-opacity:1;stroke-width:0.62175;stroke-linejoin:round"
       d="M 19.345072,51.827844 30.142346,71.177051 19.345072,90.526774 H 30.142346 50.305973 V 51.827844 H 30.142346 Z m 128.786458,0 v 38.69893 h 20.16414 10.79676 L 168.29567,71.177051 179.09243,51.827844 h -10.79676 z" /><path
       id="rect5-3"
       style="fill:#ff541a;fill-opacity:1;stroke-width:0.62175;stroke-linejoin:round"
       d="m 20.685559,54.229765 1.33997,2.401404 h 28.280444 v -2.401404 z m 127.445971,0 v 2.401404 h 28.28044 l 1.33997,-2.401404 z M 22.025529,85.72345 20.685559,88.124854 H 50.305973 V 85.72345 Z m 126.106001,0 v 2.401404 h 29.62093 l -1.33997,-2.401404 z" /><rect
       style="fill:#ffdd55;stroke-width:0.62175;stroke-linejoin:round"
       id="rect4"
       width="117.98923"
       height="41.097698"
       x="40.224201"
       y="41.764767" /><path
       style="fill:#d4aa00;stroke-width:0.62175;stroke-linejoin:round"
       d="M 30.142098,51.827848 19.345151,71.177342"
       id="path7" /><path
       style="fill:#fda400;fill-opacity:1;stroke-width:0.62175;stroke-linejoin:round"
       d="M 40.2242,82.862461 H 50.306056 V 90.5269 Z"
       id="path8" /><path
       style="fill:#fda400;fill-opacity:1;stroke-width:0.62175;stroke-linejoin:round"
       d="m 158.21334,82.862463 h -10.08186 v 7.664439 z"
       id="path8-5" /><path
       id="rect6-83"
       style="fill:#ff5319;fill-opacity:1;stroke-width:0.253429;stroke-linejoin:round"
       d="m 40.224418,44.166296 v 2.401921 H 158.2136 v -2.401921 z m 0,33.892505 v 2.401921 H 158.2136 v -2.401921 z" /><path
       id="rect4-3"
       style="opacity:0.301318;mix-blend-mode:lighten;fill:#ffffff;stroke-width:0.62175;stroke-linejoin:round"
       d="M 69.700655,41.764893 45.972904,82.862642 H 70.433427 L 94.160661,41.764893 Z m 51.302815,0 -23.727754,41.097749 H 138.20087 L 158.2136,48.199125 v -6.434232 z" /></g></svg>
