<?xml version="1.0" encoding="UTF-8"?>
<svg id="Layer_2" data-name="Layer 2" xmlns="http://www.w3.org/2000/svg" viewBox="0 0 428.203442 428.203442">
  <defs>
    <style>
      .cls-1 {
        fill: #00b4f0;
        stroke-width: 8px;
      }

      .cls-1, .cls-2, .cls-3 {
        stroke: #efa00b;
        stroke-miterlimit: 10;
      }

      .cls-2 {
        stroke-width: 10px;
      }

      .cls-2, .cls-3 {
        fill: none;
      }

      .cls-3 {
        stroke-width: 20px;
      }
    </style>
  </defs>
  <g id="wheel">
    <g>
      <circle class="cls-3" cx="214.101721" cy="214.101721" r="181"/>
      <g>
        <line class="cls-2" x1="214.298448" y1="403.064663" x2="213.70849" y2="207.435158"/>
        <line class="cls-2" x1="50.514426" y1="309.160728" x2="219.639567" y2="210.835059"/>
        <line class="cls-2" x1="49.945059" y1="120.367301" x2="219.660162" y2="217.671132"/>
        <line class="cls-2" x1="213.160242" y1="25.477871" x2="213.7502" y2="221.107376"/>
        <line class="cls-2" x1="376.944875" y1="119.381337" x2="207.819734" y2="217.707005"/>
        <line class="cls-2" x1="377.513753" y1="308.175008" x2="207.79865" y2="210.871176"/>
      </g>
      <g>
        <path class="cls-1" d="m201.81521,424.203843l25.162446-.035348c2.567391-.003607,4.937835-1.376626,6.218407-3.601856l12.55061-21.808991c1.280572-2.225229,1.276724-4.964603-.010095-7.186226l-12.611835-21.773643c-1.286819-2.221623-3.661111-3.587977-6.228502-3.58437l-25.162446.035348c-2.567391.003607-4.937835,1.376626-6.218407,3.601856l-12.55061,21.808991c-1.280572,2.225229-1.276724,4.964603.010095,7.186226l12.611835,21.773643c1.286819,2.221623,3.661111,3.587977,6.228502,3.58437Z"/>
        <path class="cls-1" d="m26.005398,308.511859l12.611836,21.773644c1.286819,2.221623,3.661111,3.587977,6.228502,3.58437l25.162447-.035348c2.567391-.003607,4.937835-1.376626,6.218407-3.601856l12.550611-21.808992c1.280572-2.22523,1.276724-4.964604-.010095-7.186226l-12.611836-21.773644c-1.286819-2.221623-3.661111-3.587977-6.228502-3.58437l-25.162447.035348c-2.567391.003607-4.937835,1.376626-6.218407,3.601856l-12.550611,21.808992c-1.280572,2.22523-1.276724,4.964604.010095,7.186226Z"/>
        <path class="cls-1" d="m38.291075,98.411307l-12.55061,21.808991c-1.280572,2.225229-1.276724,4.964603.010095,7.186226l12.611835,21.773643c1.286819,2.221623,3.661111,3.587977,6.228502,3.58437l25.162446-.035348c2.567391-.003607,4.937835-1.376626,6.218407-3.601856l12.55061-21.808991c1.280572-2.225229,1.276724-4.964603-.010095-7.186226l-12.611835-21.773643c-1.286819-2.221623-3.661111-3.587977-6.228502-3.58437l-25.162446.035348c-2.567391.003607-4.937835,1.376626-6.218407,3.601856Z"/>
        <path class="cls-1" d="m226.3876,3.999794l-25.162446.035348c-2.567391.003607-4.937835,1.376626-6.218407,3.601856l-12.55061,21.808991c-1.280572,2.225229-1.276724,4.964603.010095,7.186226l12.611835,21.773643c1.286819,2.221623,3.661111,3.587977,6.228502,3.58437l25.162446-.035348c2.567391-.003607,4.937835-1.376626,6.218407-3.601856l12.55061-21.808991c1.280572-2.225229,1.276724-4.964603-.010095-7.186226l-12.611835-21.773643c-1.286819-2.221623-3.661111-3.587977-6.228502-3.58437Z"/>
        <path class="cls-1" d="m402.198044,119.691338l-12.611836-21.773644c-1.286819-2.221623-3.661111-3.587977-6.228502-3.58437l-25.162447.035348c-2.567391.003607-4.937835,1.376626-6.218407,3.601856l-12.550611,21.808992c-1.280572,2.22523-1.276724,4.964604.010095,7.186226l12.611836,21.773644c1.286819,2.221623,3.661111,3.587977,6.228502,3.58437l25.162447-.035348c2.567391-.003607,4.937835-1.376626,6.218407-3.601856l12.550611-21.808992c1.280572-2.22523,1.276724-4.964604-.010095-7.186226Z"/>
        <path class="cls-1" d="m389.911634,329.792623l12.55061-21.808991c1.280572-2.225229,1.276724-4.964603-.010095-7.186226l-12.611835-21.773643c-1.286819-2.221623-3.661111-3.587977-6.228502-3.58437l-25.162446.035348c-2.567391.003607-4.937835,1.376626-6.218407,3.601856l-12.55061,21.808991c-1.280572,2.225229-1.276724,4.964603.010095,7.186226l12.611835,21.773643c1.286819,2.221623,3.661111,3.587977,6.228502,3.58437l25.162446-.035348c2.567391-.003607,4.937835-1.376626,6.218407-3.601856Z"/>
      </g>
    </g>
  </g>
</svg>